# xmcd
#
# Track frame offsets:
#   182
#   15970
#   27195
#   46595
#   61782
#   78265
#   100557
#   123932
#   137575
#   145930
#   162302
#   188102
#   200820
#   215522
#   232570
#   252195
#   271300
#   284237
#   299780
#
# Disc length: 4223 seconds
#
# Revision: 3
# Processed by: cddbd v1.5PL3 Copyright (c) Steve Scherf et al.
# Submitted via: Media_Universe 3.0
#
DISCID=0a107d13
DTITLE=Varios - Banda Sonora Original 2
DYEAR=1993
DGENRE=Soundtrack
TTITLE0=Chavela Vargas/Luz De Luna
TTITLE1=Clannad/Harry's game
TTITLE2=Chris de Burgh/The Lady In Red
TTITLE3=Boy George/The Crying Game
TTITLE4=Carly Simon/Coming Around Again
TTITLE5=Kenny G/Waiting For You
TTITLE6=Bedlam/Magic Carpet Ride
TTITLE7=Louis Armstrong/A Kiss To Build A Dream On
TTITLE8=Buddy Holly/Peggy Sue Got Married
TTITLE9=The Righteous Brothers/Unchained Melody
TTITLE10=Guns 'N roses/You Could Be Mine
TTITLE11=Boby Vinton/Blue Velvet
TTITLE12=Jimmy Buffet/Stars On The Water
TTITLE13=Maria Mckee/Show Me Heaven
TTITLE14=Annie Lennox/Love Song For A Vampire
TTITLE15=Berlin/Take Me Breath Away
TTITLE16=Cher/The Shoop Shoop Song
TTITLE17=John Williams/Theme From Jurassic Park
TTITLE18=Ulises Butron/El Amor Es Mas Fuerte
EXTD=
EXTT0=
EXTT1=
EXTT2=
EXTT3=
EXTT4=
EXTT5=
EXTT6=
EXTT7=
EXTT8=
EXTT9=
EXTT10=
EXTT11=
EXTT12=
EXTT13=
EXTT14=
EXTT15=
EXTT16=
EXTT17=
EXTT18=
PLAYORDER=
